<svg xmlns="http://www.w3.org/2000/svg" viewBox="0 0 170.66667 170.66667" height="170.667" width="170.667"><path d="M-395.171 186.412l-5.03-6.019h-24.088c-33.406 0-33.821-.364-30.559-26.793 2.097-16.982 3.556-21.325 8.751-26.05 4.85-4.413 10.205-6.68 22.899-9.694 6.44-1.53 12.875-3.406 14.301-4.169 3.835-2.052 3.158-6.932-1.579-11.378-2.295-2.154-5.563-7.01-7.262-10.793-1.7-3.783-3.76-7.291-4.577-7.796-3.347-2.07-5.508-11.046-8.184-33.994-2.168-18.603-2.077-23.632.476-26.185 1.91-1.91 2.775-1.977 6.364-.49 3.134 1.298 9.132 1.493 24.421.794 26.78-1.223 29.88-.65 38.075 7.044 10.237 9.611 10.793 11.665 9.15 33.838-.85 11.467-2.344 16.357-5.807 19-.96.733-2.688 4.03-3.839 7.328-1.15 3.297-3.78 7.797-5.842 10-8.446 9.02-6.591 11.364 13.197 16.682 24.682 6.633 28.399 10.942 31.157 36.123 2.896 26.438 2.786 26.533-30.668 26.533h-24.252l-3.64 4.333c-6.99 8.32-7.83 8.425-13.464 1.686zm9.986-6.352l2.67-4.334-2.74-22c-2.722-21.871-3.088-23.738-4.402-22.424-.67.67-5.976 39.638-5.979 43.911-.001 2.41 4.906 9.18 6.654 9.18.62 0 2.329-1.95 3.797-4.333zm-14.021-22.588c1.194-8.94 1.89-16.536 1.545-16.88-.344-.345-1.727.37-3.073 1.587-1.345 1.218-3.056 2.214-3.801 2.214-2.637 0-5.963-5.153-7.786-12.064-1.015-3.85-2.334-7.487-2.93-8.083-1.431-1.431-19.114 3.007-23.543 5.91-1.91 1.25-4.405 3.698-5.546 5.438-2.291 3.498-5.683 32.133-4.248 35.872.77 2.005 3.484 2.26 24.038 2.26h23.172zm69.474 5.588c-.052-5.5-.56-13.568-1.129-17.929-1.636-12.553-7.976-17.345-28.292-21.385-4.126-.82-4.206-.736-5.843 6.24-2.082 8.87-3.334 11.304-6.761 13.138-2.106 1.127-3.462.976-5.97-.667-3.109-2.037-3.242-2-3.217.905.026 3.033 1.932 17.848 3.352 26.062l.754 4.363 23.6-.363 23.601-.364zm-70.052-30.031c3.129-4.594 3.141-4.73.682-7.448-6.797-7.511-10.89-6.09-8.566 2.976 2.862 11.165 3.197 11.355 7.884 4.472zm29.057-2.726c2.193-8.457 2.172-9.91-.141-9.91-2.252 0-10.102 6.35-10.102 8.173 0 2.177 5.797 9.228 7.202 8.76.735-.245 2.103-3.405 3.041-7.023zm-11.585-9.237c5.573-4.112 6.53-5.605 5.68-8.858-.516-1.971-1.318-2.319-3.504-1.519-1.559.57-6.854.976-11.768.902-8.873-.135-11.352 1.104-9.194 4.596 1.63 2.636 9.861 8.206 12.128 8.206 1.181 0 4.178-1.497 6.658-3.327zm-.282-16.074c7.448-3.106 13.431-9.632 15.635-17.053 1.066-3.59 3.45-7.927 5.297-9.64 4.153-3.848 4.26-6.211.358-7.923-2.501-1.098-3.111-2.645-3.672-9.316-.37-4.4-1.155-8.75-1.745-9.667-1.515-2.353-9.402-2.075-27.368.962-8.551 1.446-16.748 2.496-18.215 2.334-2.357-.262-2.713.61-3.07 7.514-.333 6.425-.865 7.93-3 8.489-3.629.949-3.24 5.232.814 8.99 1.876 1.738 4.01 5.326 4.74 7.972 1.752 6.345 8.527 13.9 15.172 16.92 6.577 2.987 8.75 3.048 15.054.418zm24.29-57.99c0-1.507-3.174-5.924-7.102-9.884-9.007-9.079-14.029-10.105-33.086-6.757-11.96 2.1-18.742 2.049-24.573-.189-2.368-.908-2.52 3.195-.383 10.328 1.47 4.903 1.78 5.114 8.834 5.995 4.882.61 11.794.122 20.81-1.47 7.425-1.312 17.073-2.39 21.44-2.397 7.055-.011 8.234.383 10.593 3.543 3.19 4.272 3.467 4.338 3.467.83z" fill="#5cb3fd"/><path d="M86.86 170.027c-.024-.785-2.191-3.935-4.815-7l-4.77-5.573H53.29c-25.12 0-28.436-.638-30.416-5.845-1.884-4.956 2.169-35.131 5.426-40.402 3.765-6.09 13.809-8.211 27.242-11.376 6.234-1.469 10.857-5.45 12.793-6.19 3.161-1.206 4.15-.74 9.69 4.568 8.257 7.91 11.994 7.906 20.27-.023l6.193-5.934 12.163 3.355c22.994 6.343 28.327 8.993 32.216 16.515 2.488 4.81 5.981 35.494 4.495 39.484-1.9 5.104-5.321 5.643-30.58 5.747l-24.208.1-3.137 3.667a404.846 404.846 0 0 0-5.836 7c-1.484 1.833-2.718 2.691-2.742 1.907zm6.406-10.503l3.117-4.577-2.846-22.352c-4.216-33.112-6.728-34.023-10.754-3.897-3.286 24.59-3.277 26.774.123 31.55 3.62 5.082 6.546 4.878 10.36-.724zm-16.443-7.416c1.366-2.21 5.234-34.524 4.25-35.508-.499-.5-2.009.088-3.354 1.306-1.346 1.218-3.677 2.214-5.18 2.214-2.89 0-4.469-2.907-7.03-12.944-.788-3.085-1.993-5.956-2.678-6.38-1.81-1.119-22.008 4.154-26.047 6.8-5.003 3.279-6.995 8.075-8.57 20.629-1.828 14.585-1.768 21.659.202 23.629 2.04 2.04 47.157 2.277 48.407.254zm71.792-1.676c2.077-3.296-.98-31.946-3.944-36.965-1.255-2.124-4.496-5.107-7.202-6.627-5.486-3.084-22.085-7.228-24.009-6.04-.681.422-1.883 3.29-2.67 6.376-2.629 10.299-4.113 12.944-7.263 12.944-1.63 0-4.064-1.214-5.407-2.698s-2.865-2.234-3.384-1.667c-1.283 1.405 2.702 33.94 4.418 36.062 1.037 1.282 7.066 1.508 24.706 1.233 20.213-.315 23.525-.665 24.755-2.618zm-70.534-37.438c4.483-5.877 4.293-8.058-1.058-12.14-5.027-3.834-8.592-4.353-9.72-1.416-.676 1.765 1.632 14.438 3.1 17.016 1.257 2.206 4.456.765 7.678-3.46zm29.46-2.88c2.48-8.531 2.183-11.782-1.137-12.422-2.91-.56-11.588 5.816-11.588 8.515 0 3.282 5.858 11.212 8.296 11.23 1.64.012 2.905-2.077 4.43-7.323zm-28.8-23.704c-7.21-1.728-13.608-6.819-18.125-16.49-1.765-3.778-4.058-7.574-5.098-8.437-3.627-3.01-7.415-18.971-8.233-34.696-.21-4.034-.74-10.634-1.177-14.667-1.06-9.755 1.31-13.555 6.666-10.689 4.028 2.156 14.106 2.4 32.708.795 16.377-1.414 22.227.128 30.762 8.112 8.308 7.77 7.785 12.318 6.66 26.914-1.253 16.258-1.51 19.243-4.445 22.393-1.42 1.525-3.532 9.104-3.737 9.36-4.341 5.421-11.635 14.877-19.52 17.51-5.81 1.94-8.704 1.753-16.46-.105zM96.55 83.3c7.012-3.536 11.432-8.578 14.343-16.357 1.513-4.043 3.914-8.167 5.337-9.163 3.542-2.481 3.489-9.114-.08-10.047-2.171-.568-2.667-1.819-2.667-6.736 0-8.3-1.903-12.636-6-13.664-1.886-.473-10.84.697-19.996 1.963-9.59 1.326-19.824-1.118-22.447.258l-4.89 2.565-3.296 7.445c-2.721 6.148.812 6.645-1.474 7.243-3.959 1.035-1.201 7.66 3.437 11.73 2.2 1.93 4 4.3 4 5.266 0 .965 1.141 3.982 2.537 6.703 6.53 12.733 20.2 18.34 31.196 12.794zm22.98-57.514c-1.085-5.922-11.923-17.17-17.72-18.39-2.013-.424-4.807-1.004-6.21-1.289-1.402-.285-7.702.404-14 1.53-7.29 1.305-14.962 1.77-21.117 1.283-11.066-.878-11.26-.62-7.6 10.12 2.03 5.961 2.178 6.074 9 6.875 4.435.522 12.396-.136 22.095-1.824 20.668-3.597 26.116-3.483 30.233.634 1.8 1.8 3.272 3.9 3.272 4.667 0 .767.667 1.394 1.482 1.394.986 0 1.175-1.672.565-5z" fill="#78c2fb"/><path d="M-323.072 89.096c-7.276-1.989-15.945-10.26-19.973-19.058-1.732-3.784-4-7.585-5.039-8.448-3.627-3.01-7.415-18.971-8.233-34.696-.21-4.034-.74-10.634-1.178-14.667-1.059-9.755 1.311-13.555 6.667-10.689 4.028 2.156 14.106 2.4 32.708.795 16.377-1.414 22.227.128 30.762 8.112 8.308 7.77 9.768 12.318 8.643 26.914-1.25 16.205-1.974 19.594-4.85 22.681-1.389 1.49-3.992 5.893-5.784 9.782-4.54 9.85-10.334 15.552-18.841 18.543-8.092 2.843-7.297 2.804-14.882.731zm16.019-5.688c7.012-3.536 11.432-8.578 14.343-16.357 1.513-4.043 3.914-8.167 5.337-9.163 3.542-2.481 3.489-9.114-.08-10.047-2.171-.568-2.667-1.819-2.667-6.736 0-8.3-1.904-12.636-6-13.664-1.886-.473-10.884.41-19.996 1.963-9.112 1.553-18.99 2.823-21.952 2.823h-5.385v7.845c0 6.723-.381 7.944-2.667 8.541-3.959 1.036-3.304 5.962 1.334 10.031 2.2 1.93 4 4.3 4 5.266 0 .966 1.141 3.983 2.537 6.704 6.53 12.733 20.2 18.34 31.196 12.794zm22.98-57.514c-1.085-5.922-11.923-17.17-17.72-18.39-2.013-.424-4.807-1.004-6.21-1.289-1.402-.285-7.702.404-14 1.53-7.29 1.305-14.962 1.77-21.117 1.283-11.066-.878-11.26-.62-7.601 10.12 2.032 5.961 2.18 6.074 9 6.875 4.436.522 12.397-.136 22.096-1.824 20.668-3.597 26.116-3.483 30.233.634 1.8 1.8 3.272 3.9 3.272 4.667 0 .767.667 1.394 1.482 1.394.986 0 1.175-1.672.565-5z" fill="#8da1b5"/><path d="M-323.07 87.763c-7.07-1.934-15.347-9.89-18.916-18.187-1.483-3.448-3.62-7.036-4.749-7.973-3.242-2.69-2.386-4.324 1.077-2.055 1.72 1.128 3.847 4.451 4.726 7.387 3.193 10.654 14.924 19.959 25.165 19.959 9.361 0 21.083-9.475 24.431-19.75.882-2.704 3.016-6.613 4.743-8.686 4-4.802 4.057-9.196.14-10.915-2.502-1.097-3.112-2.645-3.672-9.316-.37-4.4-1.155-8.75-1.745-9.667-1.453-2.254-15.282-2.079-26.25.334-4.766 1.048-12.388 1.927-16.936 1.953l-8.27.047-.397 8.333c-.356 7.485-.702 8.377-3.397 8.76-1.703.241-3.039 1.394-3.09 2.666-.072 1.795-.307 1.71-1.18-.426-2.196-5.369-4.18-16.335-4.117-22.75.036-3.62-.254-10.483-.644-15.25-.892-10.902.225-12.987 5.521-10.304 6.488 3.288 12.738 3.72 23.632 1.636 20.961-4.01 30.051-1.977 40.764 9.119 5.153 5.338 5.956 6.974 6.454 13.156.954 11.85-1.64 30.139-4.75 33.486-1.486 1.6-4.22 6.207-6.076 10.24-4.941 10.736-9.624 15.359-18.089 17.86-3.983 1.177-7.583 2.082-8 2.01-.417-.072-3.285-.822-6.374-1.667zm-24.747-54.202c-.445-3.32-.134-5.695.824-6.292.847-.527 5.44-.791 10.207-.588 4.766.203 13.056-.565 18.42-1.709 5.365-1.143 13.522-2.078 18.127-2.078 9.174 0 11.822 1.638 13.496 8.346 1.624 6.504 3.29 5.36 3.29-2.26 0-6.981-.341-7.75-5.983-13.473-10.106-10.251-17.942-11.874-38.42-7.955-7.59 1.452-11.918 1.64-16 .699-3.079-.71-6.283-1.307-7.121-1.325-2.65-.056-3.096 3.7-1.189 10.037 1.015 3.373 1.518 8.154 1.117 10.626-.876 5.398.411 11.305 2.464 11.305.96 0 1.231-1.878.768-5.333z" fill="#718ba4"/><path d="M-352.715 42.354c-2.327-8.51-4.184-39.792-2.465-41.51.426-.427 3.08.46 5.898 1.97 6.12 3.281 14.279 3.525 24.947.746 15.46-4.026 25.87-1.62 36.452 8.427 7.262 6.894 9.143 13.108 7.602 25.11-1.108 8.632-1.372 9.153-4.839 9.552-3.52.405-3.666.18-3.666-5.58 0-15.397-3.481-17.037-27.79-13.098-10.016 1.623-20.31 3.095-22.877 3.27l-4.667.32-.395 7.523c-.353 6.708-.738 7.588-3.552 8.126-2.737.523-3.353-.121-4.648-4.856zm5.262-8.919v-6.791l6.348.873c4.123.567 11.894-.09 22.172-1.875 17.848-3.1 22.54-3.345 26.22-1.375 3.038 1.625 6.593 8.039 6.593 11.894 0 3.233 2.037 3.631 3.191.624 1.307-3.405.818-11.61-.918-15.402-2.123-4.64-13.476-14.266-18.012-15.273-1.977-.438-4.618-1.074-5.87-1.412-1.252-.338-8.125.382-15.274 1.6-7.84 1.335-15.403 1.866-19.057 1.336-12.154-1.76-11.433-2.061-11.03 4.593 1.485 24.547 2.01 28 4.262 28 .764 0 1.375-3.015 1.375-6.792z" fill="#4b6c8b"/><path d="M-350.518 46.051c-2.026-2.026-.763-4.157 2.464-4.157 2.41 0 3.278.626 2.985 2.151-.442 2.292-3.892 3.563-5.45 2.006zm63.065-3.157c0-1.778.889-2.667 2.667-2.667 1.777 0 2.666.889 2.666 2.667 0 1.778-.889 2.666-2.666 2.666-1.778 0-2.667-.888-2.667-2.666zm-58.667-14c0-1.222.645-2.007 1.434-1.745.788.263 1.433 1.048 1.433 1.745 0 .696-.645 1.481-1.433 1.744-.789.263-1.434-.522-1.434-1.744zm-9.333-25.486c0-2.13.624-3.195 1.667-2.848 2.49.83 2.763 4.55.398 5.458-1.532.588-2.065-.086-2.065-2.61zm40.333-1.47c2.017-.305 5.317-.305 7.334 0 2.016.306.366.556-3.667.556-4.033 0-5.683-.25-3.667-.555z" fill="#234b71"/></svg>