<svg xmlns="http://www.w3.org/2000/svg" viewBox="0 0 170.66667 170.66667" height="170.667" width="170.667"><path d="M18.967 169.429c-.558-.903-1.018-7.653-1.023-15-.007-11.048.481-14.292 2.823-18.752 3.073-5.852 12.116-14.623 18.714-18.152l4.137-2.212-3.196-10.065c-10.912-34.36-5.273-73.292 13.307-91.872 9.235-9.235 16.59-12.308 29.428-12.294 5.867.007 13.171.768 16.232 1.691 7.877 2.376 18.947 11.135 24.484 19.372 13.291 19.772 16.897 57.847 8.142 85.977l-2.566 8.244 4.187 2.598c14.22 8.82 21.311 25.574 18.921 44.703l-.925 7.403H85.807c-50.683 0-66.059-.377-66.84-1.641zm66.213-6.359l.81-3.333.942 3.667.943 3.666h59.899l.863-3.44c1.515-6.038-.264-20.933-3.183-26.65-5.283-10.345-22.457-22.03-35.487-24.145-4.748-.77-4.834-.7-8.235 6.729-1.89 4.128-3.9 7.506-4.466 7.506-.566 0-2.115-1.2-3.442-2.666-2.973-3.286-5.44-3.4-7.227-.334-1.294 2.223-1.36 2.223-1.4 0-.055-3.23-4.935-2.999-7.016.334-2 3.203-4.438 3.448-5.548.557-1.424-3.712-.876-4.622 1.783-2.961 2.143 1.338 3.067 1.189 5.333-.862 4.086-3.697 3.353-6.642-2.638-10.607-5.657-3.743-7.954-3.6-7.954.493 0 1.781-.716 2.276-2.585 1.787-4.742-1.24-24.604 6.642-33.813 13.418-6.722 4.946-10.61 13.27-11.313 24.218-.345 5.369-.237 11.316.24 13.217l.868 3.455 30.909-.357 30.909-.358zm.404-20c0-4.766.242-6.716.538-4.333.296 2.383.296 6.283 0 8.667-.296 2.383-.538.433-.538-4.334zm16.024-27.12c2.189-5.336 2.332-6.65.826-7.581-1.978-1.223-7.974 1.735-11.585 5.715-1.965 2.166-1.885 2.609 1.03 5.712 4.34 4.619 6.626 3.715 9.729-3.847zm-8.045-6.183c4.928-3.126 6.279-4.758 6.345-7.667.074-3.227.224-3.358 1.176-1.03 1.668 4.075 5.408 6.724 12.813 9.077 3.706 1.177 7.67 2.498 8.81 2.935 4.53 1.739 9.061-18.886 9.094-41.398.02-14.15-.452-17.573-3.986-28.878-7.786-24.91-22.944-37.87-43.991-37.611-28.042.344-45.384 27.894-43.564 69.209.824 18.712 5.304 36.994 9.25 37.751 1.294.249 5.998-.944 10.454-2.65 8.981-3.438 12.53-7.928 11.55-14.61-.422-2.873-.022-3.825 1.608-3.825 1.193 0 2.884.716 3.758 1.59 2.586 2.586 13.689 1.841 19.832-1.33 5.95-3.07 9.873-7.723 13.365-15.849 2.501-5.822 2.844-25.412.55-31.41-2.056-5.372-8.85-8.99-16.894-8.996-8.803-.006-19.444-3.225-24.372-7.37-2.157-1.816-4.543-3.301-5.302-3.301-3.038 0-7.144 30.613-5.5 41.012 1.103 6.98 3.854 13.36 8.12 18.834 3.28 4.208 3.14 5.936-.327 4.08-4.17-2.232-10.762-17.842-11.51-27.26-1.082-13.608 5.451-43.348 9.518-43.324.805.004 2.424 1.696 3.597 3.759 3.034 5.335 12.402 9.234 26.775 11.143 17.555 2.332 21.068 6.748 21.085 26.514.01 11.867-2.949 21-9.085 28.047-2.808 3.224-5.443 6.785-5.857 7.914-.609 1.662-3.212 2.037-13.718 1.974-12.272-.073-13.028.084-14.112 2.937-.63 1.657-.853 3.769-.495 4.692.74 1.906 11.208 8.958 13.346 8.99.773.012 4.223-1.766 7.667-3.95z" fill="#5cb3fd"/></svg>