<?xml version="1.0" encoding="UTF-8" standalone="no"?>
<svg
   xmlns:dc="http://purl.org/dc/elements/1.1/"
   xmlns:cc="http://creativecommons.org/ns#"
   xmlns:rdf="http://www.w3.org/1999/02/22-rdf-syntax-ns#"
   xmlns:svg="http://www.w3.org/2000/svg"
   xmlns="http://www.w3.org/2000/svg"
   viewBox="0 0 170.66667 170.66667"
   height="170.66667"
   width="170.66667"
   id="svg4353"
   version="1.1">
  <metadata
     id="metadata4359">
    <rdf:RDF>
      <cc:Work
         rdf:about="">
        <dc:format>image/svg+xml</dc:format>
        <dc:type
           rdf:resource="http://purl.org/dc/dcmitype/StillImage" />
        <dc:title></dc:title>
      </cc:Work>
    </rdf:RDF>
  </metadata>
  <defs
     id="defs4357" />
  <g
     id="g4361">
    <g
       transform="translate(10.289562,-8.6601253)"
       id="g4365">
      <path
         id="path4375"
         d="m 8.6773007,178.08914 c -0.55796,-0.90281 -1.01832,-7.65281 -1.02301,-15 -0.007,-11.0476 0.48137,-14.29153 2.8234103,-18.7518 3.07295,-5.85223 12.11525,-14.62299 18.7142,-18.1522 l 4.13626,-2.21213 -3.19605,-10.06443 c -10.91148,-34.36047 -5.27233,-73.292813 13.307241,-91.872389 9.23532,-9.235319 16.59072,-12.3080156 29.42839,-12.2936356 5.86667,0.0066 13.17074,0.7673306 16.23128,1.6905766 7.87724,2.376263 18.947458,11.135098 24.484688,19.372465 13.29088,19.771937 16.89624,57.846738 8.14124,85.976573 l -2.56591,8.24431 4.18768,2.59744 c 14.21935,8.81964 21.31083,25.57417 18.92085,44.70293 l -0.92504,7.40376 H 75.517162 c -50.683161,0 -66.0587413,-0.3776 -66.8398613,-1.64147 z m 66.2136113,-6.35853 0.80859,-3.33333 0.94286,3.66666 0.94286,3.66667 h 29.949188 29.9492 l 0.86355,-3.44065 c 1.51545,-6.03808 -0.26357,-20.93303 -3.18308,-26.6503 -5.28252,-10.34478 -22.457,-22.02971 -35.487088,-24.1442 -4.74794,-0.77048 -4.83365,-0.70045 -8.23464,6.72828 -1.89022,4.12878 -3.89978,7.50687 -4.4657,7.50687 -0.56591,0 -2.11492,-1.2 -3.44224,-2.66667 -2.97323,-3.28539 -5.44083,-3.39921 -7.22653,-0.33333 -1.29433,2.22222 -1.36098,2.22222 -1.39959,0 -0.0562,-3.23111 -4.93537,-2.99932 -7.01664,0.33333 -2.00048,3.20328 -4.43865,3.44834 -5.54792,0.55762 -1.42449,-3.71215 -0.87662,-4.62224 1.78276,-2.96143 2.14265,1.3381 3.06738,1.18864 5.33334,-0.86202 4.08521,-3.69707 3.35258,-6.64191 -2.63879,-10.60681 -5.65671,-3.74344 -7.9533,-3.60103 -7.9533,0.49317 0,1.78085 -0.71612,2.27588 -2.58521,1.7871 -4.74171,-1.23998 -24.604201,6.64163 -33.813281,13.4174 -6.72222,4.94601 -10.61058,13.26984 -11.31321,24.21819 -0.34454,5.36873 -0.23616,11.31633 0.24085,13.21689 l 0.86729,3.45555 30.909071,-0.35783 30.90906,-0.35783 z m 0.4036,-20 c 0,-4.76667 0.24199,-6.71667 0.53776,-4.33333 0.29577,2.38333 0.29577,6.28333 0,8.66666 -0.29577,2.38334 -0.53776,0.43334 -0.53776,-4.33333 z m 16.02359,-27.12105 c 2.18933,-5.33512 2.33259,-6.64971 0.82611,-7.58077 -1.97824,-1.22261 -7.97342,1.73523 -11.58521,5.71579 -1.96456,2.16515 -1.88458,2.60838 1.0307,5.71155 4.33919,4.61885 6.62547,3.71487 9.7284,-3.84657 z m -8.04473,-6.18292 c 4.92855,-3.1256 6.27903,-4.75723 6.34556,-7.66667 0.0738,-3.22702 0.22301,-3.35764 1.17596,-1.02936 1.66756,4.07426 5.40777,6.72378 12.812268,9.07605 3.70668,1.17754 7.67093,2.49844 8.80944,2.93533 4.53112,1.73875 9.0622,-18.88611 9.09466,-41.397724 0.0204,-14.150541 -0.45194,-17.572904 -3.98567,-28.877859 C 109.73913,26.556286 94.581152,13.596602 73.534412,13.855078 45.492022,14.19947 28.150561,41.749363 29.970451,83.063942 c 0.82426,18.712198 5.30363,36.994088 9.24974,37.751418 1.29384,0.24831 5.998291,-0.94418 10.454321,-2.64997 8.9811,-3.43802 12.53045,-7.92822 11.5496,-14.61115 -0.42156,-2.87234 -0.0215,-3.823631 1.60789,-3.823631 1.19299,0 2.88446,0.715381 3.75882,1.589741 2.58536,2.58536 13.68834,1.84109 19.8313,-1.329362 5.95083,-3.071285 9.87373,-7.723412 13.36524,-15.849704 2.501318,-5.82167 2.843918,-25.411965 0.549318,-31.410062 -2.054978,-5.371739 -8.849428,-8.989696 -16.893598,-8.99563 -8.80233,-0.0065 -19.44386,-3.225072 -24.37125,-7.371194 -2.1573,-1.815251 -4.54322,-3.300457 -5.30203,-3.300457 -3.03856,0 -7.14451,30.613594 -5.50066,41.012495 1.10322,6.978976 3.85456,13.360215 8.12046,18.833985 3.27917,4.20765 3.14068,5.935256 -0.32702,4.079399 -4.17035,-2.2319 -10.76165,-17.841858 -11.5102,-27.259211 -1.08171,-13.608668 5.4515,-43.348313 9.51762,-43.324905 0.80542,0.0047 2.42426,1.696186 3.59741,3.758999 3.03444,5.3356 12.40187,9.234176 26.77472,11.143207 17.555668,2.331778 21.068058,6.748585 21.084848,26.514031 0.0101,11.867548 -2.94827,21.000892 -9.084678,28.047264 -2.80746,3.223772 -5.44283,6.784835 -5.8564,7.913465 -0.60923,1.66263 -3.2127,2.03738 -13.71848,1.97467 -12.27169,-0.0732 -13.02796,0.0841 -14.11238,2.93636 -0.6302,1.65756 -0.85289,3.76896 -0.49487,4.692 0.73956,1.90666 11.2079,8.95832 13.34653,8.99046 0.7731,0.0116 4.2231,-1.76567 7.66667,-3.94952 z"
         style="fill:#5cb3fd;stroke-width:1.33333337" />
    </g>
  </g>
</svg>
