<?xml version="1.0" encoding="UTF-8" standalone="no"?>
<svg
   xmlns:dc="http://purl.org/dc/elements/1.1/"
   xmlns:cc="http://creativecommons.org/ns#"
   xmlns:rdf="http://www.w3.org/1999/02/22-rdf-syntax-ns#"
   xmlns:svg="http://www.w3.org/2000/svg"
   xmlns="http://www.w3.org/2000/svg"
   viewBox="0 0 170.66667 170.66667"
   height="170.66667"
   width="170.66667"
   id="svg4445"
   version="1.1">
  <metadata
     id="metadata4451">
    <rdf:RDF>
      <cc:Work
         rdf:about="">
        <dc:format>image/svg+xml</dc:format>
        <dc:type
           rdf:resource="http://purl.org/dc/dcmitype/StillImage" />
        <dc:title></dc:title>
      </cc:Work>
    </rdf:RDF>
  </metadata>
  <defs
     id="defs4449" />
  <g
     id="g4453">
    <g
       transform="translate(-397.20751,-0.40313946)"
       id="g5022">
      <path
         id="path5036"
         d="m 2.0365138,186.81467 -5.030733,-6.01837 H -27.081861 c -33.405334,0 -33.821095,-0.36453 -30.558418,-26.79286 2.096584,-16.98275 3.555309,-21.32541 8.75074,-26.05118 4.850655,-4.41216 10.20494,-6.67872 22.899027,-9.69356 6.439503,-1.52938 12.875069,-3.40519 14.301257,-4.16846 3.8350498,-2.05245 3.1578288,-6.93162 -1.579227,-11.37782 -2.294764,-2.15387 -5.562801,-7.01096 -7.262307,-10.793538 -1.699505,-3.782577 -3.758983,-7.290861 -4.576615,-7.796186 -3.34736,-2.068782 -5.50851,-11.04577 -8.183608,-33.993068 -2.16867,-18.603124 -2.077353,-23.632583 0.475436,-26.185372 1.910407,-1.910407 2.775064,-1.977016 6.364356,-0.490283 3.13345,1.297917 9.131387,1.493071 24.4209818,0.794581 26.7797142,-1.223403 29.8801652,-0.649841 38.0748052,7.04359 10.2372,9.611059 10.79252,11.664747 9.14991,33.838246 -0.84945,11.46669 -2.34392,16.356564 -5.80667,18.999239 -0.9609,0.733333 -2.68841,4.031097 -3.83891,7.328365 -1.15051,3.297269 -3.77952,7.797269 -5.84226,10.000006 -8.446377,9.01964 -6.591344,11.36457 13.19718,16.68245 24.68219,6.63298 28.39851,10.94164 31.15699,36.12315 2.89606,26.43753 2.78606,26.5327 -30.66848,26.5327 H 19.140864 l -3.640797,4.33333 c -6.9899332,8.31952 -7.8299312,8.42466 -13.4635532,1.68504 z m 9.9857802,-6.3517 2.669307,-4.33334 -2.738531,-22 c -2.7225462,-21.8716 -3.0889772,-23.73806 -4.4024802,-22.42455 -0.670085,0.67008 -5.97563,39.63802 -5.978609,43.91141 -0.0017,2.40972 4.905041,9.17981 6.653195,9.17981 0.620297,0 2.3290012,-1.95 3.7971182,-4.33333 z M -1.9987982,157.87545 c 1.19461202,-8.9398 1.89008402,-16.53612 1.54549202,-16.88072 -0.344592,-0.34459 -1.72745502,0.36979 -3.07302702,1.58752 -1.345572,1.21773 -3.056258,2.21405 -3.801524,2.21405 -2.636658,0 -5.9622198,-5.15336 -7.7852688,-12.06422 -1.015471,-3.84947 -2.334165,-7.48689 -2.930433,-8.08315 -1.431189,-1.43119 -19.113852,3.00716 -23.543105,5.90932 -1.909811,1.25135 -4.405308,3.69901 -5.545548,5.43924 -2.291439,3.49718 -5.683033,32.13314 -4.248544,35.87136 0.769575,2.00548 3.484201,2.26078 24.038739,2.26078 h 23.1711958 z m 69.4743852,5.58752 c -0.0521,-5.5 -0.56009,-13.56791 -1.12868,-17.92868 -1.6368,-12.55353 -7.97629,-17.34532 -28.29262,-21.38532 -4.1262,-0.82052 -4.20534,-0.73599 -5.84286,6.2411 -2.08169,8.86962 -3.33407,11.30311 -6.760914,13.1371 -2.106438,1.12733 -3.462352,0.97586 -5.969442,-0.66685 -3.10912,-2.03717 -3.242826,-1.99955 -3.217511,0.90524 0.02643,3.03281 1.931656,17.84786 3.351495,26.06123 l 0.75437,4.36383 23.600532,-0.36383 23.60053,-0.36382 z M -2.5759972,133.43198 c 3.12828902,-4.59343 3.14081502,-4.7303 0.681586,-7.44772 -6.797464,-7.51111 -10.8903298,-6.08934 -8.5663398,2.97577 2.8624658,11.16552 3.1969848,11.35525 7.8847538,4.47195 z M 26.480516,130.7066 c 2.192621,-8.45698 2.171931,-9.9103 -0.141068,-9.9103 -2.252075,0 -10.1023,6.35064 -10.1023,8.17251 0,2.1771 5.797797,9.22822 7.202828,8.75988 0.73444,-0.24481 2.102683,-3.40475 3.04054,-7.02209 z m -11.584782,-9.23768 c 5.572858,-4.11152 6.530094,-5.60444 5.67937,-8.85761 -0.515507,-1.97131 -1.317375,-2.31901 -3.503243,-1.51907 -1.559092,0.57056 -6.85464,0.9763 -11.7678832,0.90164 -8.873481,-0.13484 -11.352403,1.10428 -9.194431,4.59596 1.629215,2.63612 9.861121,8.20646 12.127601,8.20646 1.181722,0 4.1780882,-1.49732 6.6585862,-3.32738 z m -0.282428,-16.07353 c 7.448518,-3.10668 13.431351,-9.632102 15.635151,-17.053124 1.06604,-3.589718 3.44959,-7.927433 5.2968,-9.639368 4.15292,-3.848793 4.25986,-6.212169 0.35856,-7.923765 -2.50167,-1.097542 -3.11161,-2.645052 -3.67191,-9.316171 -0.36955,-4.4 -1.15496,-8.75 -1.74536,-9.666667 -1.51528,-2.35268 -9.402402,-2.07542 -27.3680452,0.962079 -8.551412,1.44581 -16.7480208,2.49581 -18.2146878,2.333333 -2.357653,-0.26118 -2.7135,0.609611 -3.070816,7.5146 -0.332493,6.425294 -0.864393,7.930368 -3,8.488842 -3.628235,0.948805 -3.239975,5.231522 0.814964,8.989515 1.875949,1.738569 4.00868,5.326321 4.739403,7.97278 1.751944,6.345019 8.5269398,13.900236 15.17167982,16.918876 6.57754298,2.98812 8.74978798,3.04858 15.05426118,0.41907 z M 38.903817,47.405066 c 0,-1.50684 -3.17423,-5.924253 -7.1021,-9.883627 -9.006941,-9.079181 -14.029013,-10.104874 -33.0860792,-6.757404 -11.9605648,2.100933 -18.7424418,2.04889 -24.5731758,-0.188572 -2.367642,-0.90855 -2.51964,3.194346 -0.382587,10.327194 1.469081,4.903357 1.780283,5.114594 8.833202,5.995798 4.882148,0.609984 11.7948218,0.121427 20.8106048,-1.470823 7.4250722,-1.311313 17.0727112,-2.38981 21.4391952,-2.39666 7.05536,-0.01107 8.23455,0.383316 10.59367,3.5431 3.1892,4.271592 3.46727,4.338236 3.46727,0.830994 z"
         style="fill:#5cb3fd;stroke-width:1.33333337" />
      <path
         id="path5034"
         d="m 484.06752,170.42998 c -0.0244,-0.78467 -2.19112,-3.93467 -4.81493,-7 l -4.77056,-5.57333 h -23.98376 c -25.11967,0 -28.43622,-0.63731 -30.41609,-5.84476 -1.88403,-4.95538 2.16917,-35.13102 5.4268,-40.40197 3.76409,-6.09043 13.80824,-8.21109 27.24175,-11.37591 6.23334,-1.46852 10.85668,-5.450495 12.79298,-6.189655 3.16098,-1.20668 4.15067,-0.74018 9.69008,4.567505 8.25623,7.91087 11.99355,7.90667 20.26915,-0.0228 l 6.19328,-5.934205 12.16347,3.35531 c 22.99334,6.342735 28.32654,8.993085 32.21632,16.515105 2.48738,4.81005 5.98056,35.4937 4.49499,39.4834 -1.90077,5.10481 -5.32162,5.64318 -30.58049,5.74773 l -24.20797,0.1002 -3.1375,3.66667 c -1.72562,2.01667 -4.35152,5.16667 -5.83533,7 -1.48381,1.83333 -2.7178,2.69134 -2.74219,1.90666 z m 6.40608,-10.50253 3.11712,-4.57764 -2.84624,-22.35189 c -4.21642,-33.11212 -6.7283,-34.0224 -10.75387,-3.89706 -3.28605,24.59121 -3.27752,26.77389 0.12333,31.54996 3.6189,5.08227 6.54551,4.87791 10.35966,-0.72337 z m -16.44296,-7.41623 c 1.36617,-2.21052 5.23409,-34.52411 4.25027,-35.50793 -0.49944,-0.49944 -2.00899,0.0883 -3.35457,1.30597 -1.34557,1.21773 -3.67645,2.21405 -5.17974,2.21405 -2.88982,0 -4.46911,-2.90754 -7.03064,-12.9437 -0.78757,-3.08571 -1.99228,-5.95668 -2.67715,-6.37996 -1.8108,-1.11914 -22.00843,4.15397 -26.04725,6.80031 -5.00268,3.27788 -6.99509,8.07407 -8.56924,20.62819 -1.82883,14.58522 -1.76871,21.65895 0.20084,23.6285 2.04016,2.04016 47.15728,2.27742 48.40748,0.25457 z m 71.79208,-1.67577 c 2.07721,-3.29662 -0.97984,-31.94655 -3.94431,-36.96499 -1.25494,-2.12447 -4.49564,-5.10695 -7.20152,-6.62774 -5.48662,-3.08366 -22.08559,-7.22792 -24.00915,-6.03909 -0.68133,0.42108 -1.88315,3.29027 -2.67072,6.37598 -2.62848,10.2985 -4.11262,12.9437 -7.26231,12.9437 -1.6307,0 -4.06373,-1.21418 -5.40673,-2.69817 -1.343,-1.48399 -2.86595,-2.23399 -3.38433,-1.66667 -1.2836,1.4048 2.70196,33.939 4.41767,36.06151 1.0368,1.28263 7.06587,1.5078 24.70621,1.23313 20.21283,-0.31472 23.52476,-0.66493 24.75519,-2.61766 z m -70.53408,-37.43799 c 4.48301,-5.87754 4.29296,-8.05825 -1.058,-12.13963 -5.02734,-3.83453 -8.59216,-4.35414 -9.71937,-1.41668 -0.6771,1.76451 1.63158,14.43762 3.09974,17.0155 1.25661,2.20641 4.45561,0.76509 7.67763,-3.45919 z m 29.46045,-2.88067 c 2.47996,-8.53078 2.18212,-11.78209 -1.13789,-12.42146 -2.91018,-0.56045 -11.58804,5.81578 -11.58804,8.51454 0,3.282 5.85864,11.21275 8.29608,11.23027 1.64106,0.0117 2.90481,-2.07743 4.42985,-7.32335 z M 475.9492,86.813088 c -7.21061,-1.72786 -13.60886,-6.818613 -18.12612,-16.490643 -1.7641,-3.777138 -4.05787,-7.573316 -5.09728,-8.435948 -3.62766,-3.010693 -7.41492,-18.97168 -8.23287,-34.696527 -0.2098,-4.033333 -0.73986,-10.633334 -1.1779,-14.666667 -1.05948,-9.7552184 1.31046,-13.5554104 6.66614,-10.6891384 4.02851,2.155994 14.10587,2.400793 32.70865,0.794558 16.37655,-1.414012 22.22636,0.128687 30.76156,8.1123664 8.30771,7.770887 7.78536,12.317874 6.66022,26.913586 -1.25329,16.258262 -1.50995,19.243666 -4.4447,22.393751 -1.42089,1.525138 -3.53272,9.104158 -3.73715,9.359462 -4.34124,5.421485 -11.63476,14.876801 -19.52059,17.509741 -5.80965,1.939745 -8.70403,1.753999 -16.45996,-0.104541 z m 17.80684,-3.108663 c 7.01216,-3.53674 11.43259,-8.577903 14.34327,-16.357393 1.51278,-4.043267 3.91451,-8.166691 5.33718,-9.163165 3.54184,-2.480804 3.48903,-9.113574 -0.08,-10.046895 -2.17143,-0.567843 -2.66667,-1.818688 -2.66667,-6.735376 0,-8.301011 -1.9038,-12.636019 -6.00094,-13.664338 -1.88573,-0.473287 -10.83961,0.69645 -19.99576,1.962761 -9.58992,1.326301 -19.82372,-1.117467 -22.44643,0.258225 l -4.8902,2.565059 -3.29557,7.444767 c -2.72141,6.147737 0.81128,6.645418 -1.4742,7.243084 -3.95926,1.03537 -1.2014,7.65974 3.43644,11.729369 2.2,1.930466 4,4.300232 4,5.266144 0,0.965913 1.14161,3.982302 2.53691,6.703088 6.53021,12.73368 20.20059,18.34043 31.19597,12.79467 z M 516.73673,26.18997 C 515.65122,20.26822 504.81344,9.0207696 499.01668,7.8001046 c -2.0131,-0.423913 -4.80761,-1.003917 -6.21002,-1.288899 -1.40241,-0.284981 -7.70241,0.403716 -14,1.530439 -7.2899,1.30426 -14.96242,1.770104 -21.11684,1.282128 -11.06621,-0.877428 -11.26025,-0.619107 -7.60126,10.1194574 2.03154,5.962236 2.17912,6.074991 9,6.876409 4.43596,0.521203 12.39741,-0.13605 22.09584,-1.824112 20.66793,-3.597358 26.11572,-3.483145 30.2327,0.633836 1.8,1.8 3.27272,3.9 3.27272,4.666667 0,0.766667 0.66678,1.39394 1.48173,1.39394 0.98626,0 1.17524,-1.671903 0.56518,-5 z"
         style="fill:#78c2fb;stroke-width:1.33333337" />
      <path
         id="path5030"
         d="M 74.135541,89.499372 C 66.859338,87.510638 58.190704,79.238711 54.162834,70.440687 52.430765,66.657347 50.16319,62.856096 49.123782,61.993464 45.496119,58.982771 41.708858,43.021784 40.890906,27.296937 40.681106,23.263604 40.151051,16.663603 39.713007,12.63027 38.65353,2.8750515 41.02347,-0.92514026 46.379149,1.9411318 c 4.02851,2.1559936 14.105872,2.4007927 32.708655,0.7945584 16.376546,-1.4140127 22.226356,0.1286867 30.761556,8.1123658 8.30771,7.770887 9.76788,12.317874 8.64274,26.913586 -1.24926,16.205927 -1.97384,19.594882 -4.84944,22.681481 -1.38875,1.490644 -3.99169,5.892561 -5.78432,9.782039 -4.53999,9.850463 -10.333849,15.552475 -18.841273,18.542595 -8.091351,2.84388 -7.29635,2.804796 -14.881526,0.731615 z m 16.018477,-5.687983 c 7.012158,-3.536735 11.432592,-8.5779 14.343272,-16.35739 1.51278,-4.043267 3.91451,-8.166691 5.33718,-9.163165 3.54184,-2.480804 3.48903,-9.113574 -0.08,-10.046895 -2.17143,-0.567843 -2.66667,-1.818688 -2.66667,-6.735376 0,-8.301011 -1.9038,-12.636019 -6.00094,-13.664338 C 99.201131,27.370938 90.20304,28.254181 81.0911,29.806986 71.979161,31.359793 62.100808,32.63027 59.139204,32.63027 H 53.75447 v 7.844493 c 0,6.723152 -0.381189,7.944174 -2.666667,8.54184 -3.959262,1.03537 -3.3045,5.961258 1.333334,10.030887 2.2,1.930466 4,4.300232 4,5.266144 0,0.965913 1.141609,3.982302 2.536909,6.703088 6.530211,12.733679 20.200593,18.340427 31.195972,12.794667 z M 113.13471,26.296937 C 112.0492,20.375187 101.21142,9.1277366 95.414659,7.907072 93.401556,7.4831588 90.607047,6.9031543 89.20464,6.618173 87.802233,6.3331916 81.502233,7.0218891 75.20464,8.1486118 67.914736,9.4528721 60.242217,9.9187158 54.087803,9.4307393 43.021585,8.5533113 42.827545,8.8116329 46.486542,19.550197 c 2.031537,5.962236 2.179113,6.074991 9,6.876409 4.435962,0.521203 12.397407,-0.13605 22.095834,-1.824112 20.667936,-3.597358 26.115724,-3.483145 30.232704,0.633836 1.8,1.8 3.27272,3.9 3.27272,4.666667 0,0.766667 0.66678,1.39394 1.48173,1.39394 0.98626,0 1.17524,-1.671903 0.56518,-5 z"
         style="fill:#8da1b5;stroke-width:1.33333337" />
      <path
         id="path5028"
         d="m 74.138097,88.166038 c -7.071137,-1.933564 -15.347531,-9.890645 -18.916312,-18.1865 -1.483612,-3.448751 -3.620691,-7.036656 -4.749063,-7.973122 -3.24212,-2.690721 -2.386684,-4.323852 1.076312,-2.054809 1.720344,1.127212 3.84741,4.450992 4.726812,7.386177 3.192176,10.654534 14.923426,19.959154 25.164466,19.959154 9.361683,0 21.082728,-9.475113 24.431408,-19.749978 0.88132,-2.704178 3.01548,-6.612724 4.74257,-8.685656 4.00066,-4.801745 4.0571,-9.196417 0.14018,-10.914863 -2.50167,-1.097541 -3.11161,-2.645052 -3.67191,-9.31617 -0.36955,-4.400001 -1.15496,-8.750001 -1.74536,-9.666667 -1.4522,-2.254747 -15.281668,-2.079131 -26.249396,0.333333 -4.766667,1.048477 -12.388036,1.9274 -16.936378,1.953161 l -8.269709,0.04684 -0.396958,8.333334 c -0.35653,7.484693 -0.702466,8.376722 -3.396956,8.759401 -1.702984,0.241863 -3.039014,1.394765 -3.09024,2.666667 -0.0723,1.795097 -0.307025,1.710381 -1.18053,-0.426068 C 43.621873,45.26128 41.637661,34.294794 41.700717,27.879925 41.736306,24.259281 41.446329,17.396937 41.056323,12.63027 40.164355,1.7286152 41.281878,-0.35695502 46.577535,2.3263354 c 6.488451,3.2876747 12.738025,3.7203145 23.631917,1.6359688 20.96155,-4.01060672 30.051108,-1.9773309 40.763678,9.1185688 5.15343,5.337841 5.95603,6.9739 6.45392,13.155992 0.95432,11.849416 -1.63997,30.138934 -4.74995,33.486751 -1.48509,1.59866 -4.21911,6.206655 -6.07561,10.239988 -4.94128,10.735207 -9.623834,15.358467 -18.089021,17.859962 -3.983101,1.177021 -7.583101,2.081134 -8,2.009139 -0.4169,-0.072 -3.285366,-0.821995 -6.374372,-1.666667 z M 49.390271,33.963858 c -0.445222,-3.319381 -0.133924,-5.694892 0.824442,-6.291305 0.846866,-0.527025 5.439757,-0.791783 10.206424,-0.588349 4.766667,0.203433 13.055892,-0.565479 18.420502,-1.708695 5.364609,-1.143215 13.521616,-2.078572 18.126684,-2.078572 9.173807,0 11.822467,1.637855 13.496637,8.345931 1.62321,6.503883 3.28951,5.359333 3.28951,-2.259499 0,-6.981709 -0.34143,-7.750619 -5.98259,-13.472784 C 97.665304,5.6588713 89.82911,4.0362341 69.351048,7.9548006 61.762452,9.4069115 57.433373,9.596047 53.351047,8.6538334 50.27293,7.9433943 47.068663,7.3474583 46.230455,7.3295312 43.57961,7.2728367 43.134723,11.029023 45.041766,17.365643 c 1.015128,3.373019 1.517548,8.154859 1.116485,10.626313 -0.875958,5.397904 0.411451,11.304981 2.463847,11.304981 0.961063,0 1.231583,-1.878104 0.768173,-5.333079 z"
         style="fill:#718ba4;stroke-width:1.33333337" />
      <path
         id="path5026"
         d="M 44.492338,42.75666 C 42.165797,34.247712 40.308093,2.9655366 42.027234,1.2463951 c 0.426021,-0.42602145 3.080045,0.4610689 5.897831,1.9713118 6.121076,3.2807005 14.279412,3.5246219 24.94766,0.7458963 15.460035,-4.02682732 25.869595,-1.6204177 36.452265,8.4267788 7.26164,6.894217 9.14258,13.107422 7.60162,25.110026 -1.10825,8.63222 -1.372,9.152859 -4.83881,9.551759 -3.51943,0.404956 -3.66666,0.180901 -3.66666,-5.579867 0,-15.396748 -3.4811,-17.037486 -27.790023,-13.098195 -10.015489,1.623023 -20.30998,3.094623 -22.876647,3.270224 l -4.666667,0.319275 -0.395589,7.523132 c -0.352733,6.708133 -0.737456,7.588483 -3.551325,8.126388 -2.73702,0.523215 -3.353811,-0.12116 -4.648551,-4.856464 z m 5.262132,-8.918174 v -6.791784 l 6.347823,0.87305 c 4.123012,0.567058 11.894189,-0.09005 22.172703,-1.874883 17.847428,-3.09914 22.538824,-3.345175 26.219994,-1.375073 3.03791,1.625837 6.59281,8.039338 6.59281,11.894261 0,3.232852 2.0367,3.63106 3.19069,0.623831 1.30666,-3.4051 0.81792,-11.60933 -0.91749,-15.40144 C 111.23762,17.146571 99.884644,7.5203855 95.348263,6.5134554 93.371678,6.0747172 90.73027,5.4392723 89.478468,5.1013555 88.226665,4.7634387 81.353312,5.4833335 74.204349,6.7011216 66.364606,8.0365804 58.801601,8.5669151 55.147018,8.0374639 42.99311,6.2766875 43.714895,5.9761292 44.117457,12.63027 c 1.48506,24.547319 2.010586,28.000001 4.261833,28.000001 0.764705,0 1.37518,-3.015035 1.37518,-6.791785 z"
         style="fill:#4b6c8b;stroke-width:1.33333337" />
      <path
         id="path5024"
         d="m 46.689451,46.454141 c -2.025848,-2.025848 -0.762569,-4.157204 2.46402,-4.157204 2.409912,0 3.27844,0.626032 2.98469,2.151355 -0.44145,2.292259 -3.892028,3.562531 -5.44871,2.005849 z m 63.065019,-3.157204 c 0,-1.777777 0.88889,-2.666666 2.66667,-2.666666 1.77778,0 2.66666,0.888889 2.66666,2.666666 0,1.777778 -0.88888,2.666667 -2.66666,2.666667 -1.77778,0 -2.66667,-0.888889 -2.66667,-2.666667 z m -58.666667,-14 c 0,-1.222223 0.645,-2.007223 1.433334,-1.744444 0.788333,0.262777 1.433333,1.047777 1.433333,1.744444 0,0.696667 -0.645,1.481667 -1.433333,1.744444 -0.788334,0.262779 -1.433334,-0.522221 -1.433334,-1.744444 z M 41.75447,3.8106457 c 0,-2.1291538 0.623761,-3.19491094 1.666667,-2.8476653 2.491137,0.8294483 2.763028,4.5504303 0.398789,5.4576735 C 42.287395,7.0087412 41.75447,6.3353121 41.75447,3.8106457 Z M 82.087804,2.3419306 c 2.016667,-0.3054996 5.316667,-0.3054996 7.333334,0 2.016666,0.3054995 0.366666,0.5554536 -3.666667,0.5554536 -4.033334,0 -5.683334,-0.2499541 -3.666667,-0.5554536 z"
         style="fill:#234b71;stroke-width:1.33333337" />
    </g>
    <g
       transform="translate(-188.21414,4.0809506)"
       id="g5002" />
  </g>
</svg>
